/* XPM */
static char *e6e39849aa10453188f0492362cb00c7I58yM6nQ8JwBzKgw[] = {
/* columns rows colors chars-per-pixel */
"64 64 250 2 ",
"   c #0C0C19",
".  c #130D1C",
"X  c #14141A",
"o  c #1B131D",
"O  c #27181C",
"+  c #0D0C26",
"@  c #130E21",
"#  c #1B1523",
"$  c #181627",
"%  c #0D1530",
"&  c #1A1B34",
"*  c #211724",
"=  c #231A24",
"-  c #2B1D24",
";  c #241C2B",
":  c #291E2A",
">  c #321D28",
",  c #241E31",
"<  c #1A2432",
"1  c #24232A",
"2  c #2C222C",
"3  c #362327",
"4  c #33252C",
"5  c #35292D",
"6  c #3B2A2D",
"7  c #242234",
"8  c #2B2432",
"9  c #2A2939",
"0  c #322632",
"q  c #392732",
"w  c #352A33",
"e  c #3B2C33",
"r  c #342D3A",
"t  c #392E3A",
"y  c #2C3132",
"u  c #3A3239",
"i  c #3C323B",
"p  c #462C2B",
"a  c #48312E",
"s  c #452F33",
"d  c #433334",
"f  c #4A3734",
"g  c #43353C",
"h  c #4A343A",
"j  c #44393D",
"k  c #4B3A3B",
"l  c #543935",
"z  c #533D3C",
"x  c #723F32",
"c  c #4E403E",
"v  c #56413B",
"b  c #5B433C",
"n  c #66473D",
"m  c #714B3A",
"M  c #1C314C",
"N  c #282D44",
"B  c #2C374A",
"V  c #2D364D",
"C  c #3B3543",
"Z  c #383748",
"A  c #443B43",
"S  c #4C3C43",
"D  c #453C49",
"F  c #523E43",
"G  c #433F51",
"H  c #34434C",
"J  c #28455A",
"K  c #374758",
"L  c #1D4E66",
"P  c #1E5569",
"I  c #274A64",
"U  c #275569",
"Y  c #33546A",
"T  c #2E667B",
"R  c #4A4247",
"E  c #4C424A",
"W  c #554343",
"Q  c #5B4543",
"!  c #5D4A45",
"~  c #54454A",
"^  c #5A464A",
"/  c #55494C",
"(  c #5C4B4B",
")  c #494754",
"_  c #574B52",
"`  c #524B54",
"'  c #515154",
"]  c #595358",
"[  c #664946",
"{  c #644C44",
"}  c #6B4D44",
"|  c #634C4A",
" . c #674E4E",
".. c #6B5246",
"X. c #64524C",
"o. c #6B544C",
"O. c #6D574C",
"+. c #745445",
"@. c #73554A",
"#. c #745A4C",
"$. c #7C5C4C",
"%. c #645352",
"&. c #6B5552",
"*. c #6D5A53",
"=. c #695B5A",
"-. c #735C53",
";. c #715A57",
":. c #7B5D52",
">. c #776154",
",. c #7C6254",
"<. c #776459",
"1. c #7C6459",
"2. c #485568",
"3. c #4F5669",
"4. c #565967",
"5. c #685C61",
"6. c #516270",
"7. c #576778",
"8. c #716C70",
"9. c #835E49",
"0. c #825F53",
"q. c #85634D",
"w. c #906C4E",
"e. c #836553",
"r. c #886553",
"t. c #856956",
"y. c #8C6B55",
"u. c #83665A",
"i. c #846B5C",
"p. c #8B6D5B",
"a. c #926C54",
"s. c #8D725C",
"d. c #97765B",
"f. c #93745C",
"g. c #9A755B",
"h. c #9C795D",
"j. c #A37C5C",
"k. c #856E62",
"l. c #8C7363",
"z. c #897668",
"x. c #927563",
"c. c #957665",
"v. c #957964",
"b. c #9B7C63",
"n. c #947C6B",
"m. c #9B7E69",
"M. c #8A7B74",
"N. c #957F71",
"B. c #A27E63",
"V. c #A87E61",
"C. c #A7825E",
"Z. c #9C8167",
"A. c #9D836C",
"S. c #9A8574",
"D. c #A38265",
"F. c #AA8564",
"G. c #A3846B",
"H. c #A5896D",
"J. c #AA8869",
"K. c #AC8B6C",
"L. c #B38C66",
"P. c #B28E6C",
"I. c #AD936F",
"U. c #B3916D",
"Y. c #BA946D",
"T. c #A58A72",
"R. c #AB8D72",
"E. c #A38C79",
"W. c #B18F70",
"Q. c #AC9173",
"!. c #AD947A",
"~. c #AD987B",
"^. c #B39474",
"/. c #BA9673",
"(. c #BC9A75",
"). c #B3967A",
"_. c #B79878",
"`. c #B59A7C",
"'. c #BB9D7B",
"]. c #BEA17E",
"[. c #C2996F",
"{. c #C19D77",
"}. c #C3A27D",
"|. c #CAA67B",
" X c #D0A97E",
".X c #2F7B97",
"XX c #507087",
"oX c #6D7A87",
"OX c #378FA0",
"+X c #518D9E",
"@X c #4FA6B8",
"#X c #938F8F",
"$X c #A99885",
"%X c #B49B82",
"&X c #BA9E81",
"*X c #A09A96",
"=X c #BDA182",
"-X c #BAA489",
";X c #BBAB96",
":X c #A6AAAD",
">X c #AAADB1",
",X c #C3A583",
"<X c #C8A783",
"1X c #C5A985",
"2X c #CBAB85",
"3X c #C4AB8B",
"4X c #CBAD8A",
"5X c #D1AD86",
"6X c #CEB18C",
"7X c #D3B38C",
"8X c #D9B88D",
"9X c #C5AE93",
"0X c #CDB392",
"qX c #C8B699",
"wX c #D3B692",
"eX c #D9B794",
"rX c #D5BA94",
"tX c #DBBD95",
"yX c #D5BC9A",
"uX c #DABE99",
"iX c #CFBCA2",
"pX c #DBC197",
"aX c #DDC29D",
"sX c #E2C59A",
"dX c #DCC4A2",
"fX c #DAC8A8",
"gX c #D6CAB2",
"hX c #E4C8A2",
"jX c #E4CBA4",
"kX c #E3CDAA",
"lX c #E8D2AD",
"zX c #E6D1B1",
"xX c #E4D3B3",
"cX c #E9D8B5",
"vX c #ECDBBB",
"bX c #F1DEBA",
"nX c #EFE0BE",
"mX c #BDC1C7",
"MX c #C4C8CD",
"NX c #D5D9DC",
"BX c #E9DCC1",
"VX c #EEE1C4",
"CX c #F4E7C8",
"ZX c #F5EACD",
"AX c #F7EDD3",
"SX c #F9F1D5",
"DX c #FAF3DB",
"FX c #D8DDE2",
"GX c #DFE2E3",
"HX c #F1F1E9",
/* pixels */
"NX&.x.i.A.A.( #X*X!.Q.A.HX$X$Xn.A.m.<.HXz.i.M.E.<.%XS.;XE.<.8.HXgXHX<.<.HX<.-XdXgXk.b.z.NX_ %XT.).&X%Xn.;XHXE.&.%.l.x.l.z.%.<.>X",
"e VXDXDXwXjXSX,.8.BXZXZXA./.vXlXZXSX<XxXdXL.. 9.ZXDXDXlX2XCX#.qXbX_.ZXcX2 DXSXSXSXvXSXxX- uXcXAXSXZX'.xXCXY.dXgXd DXDXDXDXDXx X ",
"a hXlXsXtXsXa...e.}.pX8X6X4Xz wXjXF.[.b (.F.b cX/.8X2X|./.aX>.f.rX4X8X^.3 '.}.7XsX}.D.w.f |.|.5X<XK.L.Y.U.d.j.m ..Y. X|.5XY.m o ",
"p /.tX7Xg.L.C.4 D.K././.b.1.!.H.C.P.j.:.$.y.3 rX{.}.G.s.R.K.O.B.(.j.Y.#.d |.5X/.4Xr.<Xn 4 e.(.5X{.Q.sX X+.F.f.f.@.j.L.7Xa.f.6 O ",
"p h./.L.j.w.j.4 { g.h.f.{ %X3 a C.j.aXZ.b b = }.U.(.Q.(._.}.! ..G.(.H.l.a Y.(.|.}.q./.} = d.,.U.h.P.{.|.w.q.R.-.l F.7X7Xa.h.h O ",
"> $.a.+.j.6Xk 2 2 { Z.S.b.@.4 ..rX8Xf.6 t.[.f } f.t.K._.$.(.Q 0 q.q.f.,.p j.q.g.J.j.{ +.q o.s.+.G.r.F.m G.+.f.o.6 P.{.C.g.q.e o ",
"3 +.[ a.g.F ! w Q $.} e.9.$.5 B.u.w 5 k f.r.: ,.e f.:.k.-.o.h h a.r.9.k @ $.W j @.v [ W t # a.,.j o.+.r.n n v.: s P.$.@.n 0 ) X ",
"4.7 ; 7 r 7 2 * - 6 f f 5 - o = r $ = Z r 2 . 2 2 r B 9 $ 2 - 2 5 s d o & & B Z r u r r = - = * 2 0 9 r = 4 e o @ 7 B B # 9 Y ' ",
"mXO f q k f :.# 1.7XwXaXuX{.yXQ.{   `.fX3XQ.dXdX0X=X..# `.fXxXxX$X;XfXcXu = d b.].0XQ.).yXm.} k . K.0X`.#.vXdX,XS.5 z d ; 2 , :X",
"MXb |.L./.{ W 5 4X|.5X5X7X}.g.$.} X.K.rXd.(.rXjXK.<.Q *.U.4X}.2XK.7X^.K.z.2 m.a p.f.g.f.h.<X(.y.w 4X<XuXuXB._.=Xw b U./.d @.Z   ",
"i (.|.U.B.} { = K.[. X{.}.^.#.$.k ; (.Z.cXaXhXR.}.A.Q k K.).v.Q.1.`.,X_.( 4 T.f.*.=  X8X8X..g.w qX<Xf...aXhXsX`.D / F.P.(.k %   ",
"GXx.P.j.$.L.g.2 e.Y.[.P.e.#.(.D.y.: F.{.(./.(.yX7X:.W 5 J.b.`.=X}.G.-Xo.( @.,X4Xp.kXM.b.G.u.P.,.q.}./.'.^.n | l./ _ q.+.Z d ;.X ",
"8.k.k x.b.B.k 4 ,.c.;.} ^.}.c.f.~ = y.(.^.^.^.A.,X1.S * W 4XA.(.(.F.s.,.N { R.,Xt.=X).r.v ..#.d t.V.U.B.^.^.A.x.S ! +.( l.| ~ X ",
":Xk x.b.y.f.! 9 w y.h G.p.b.p.| 4.# e.u.-.c.1.=.;.R 9 = u.t.:.#.{ S -.E K l f.u.u.e.f.d.y.-.e w @.:...a.p.x.v.k D 4 O.n.S F 6.X ",
"NX# a a p f v @ e e u 8 ( W R k 5 d o d q q e h e , 7 # 5 e k u G R u r # - q b : e e A R e q - * * u z k R ) 2 : 2 5 5 ; @ V :X",
"W AXHXDX3XnXAXn.b.7XgXbX=X= b o +.+.lXDXDXSXaXn 2 wXSXZXDXSXDXVX..o fXSXDXSXSXAXl -XO.= A.jXsXxXAX'.AXZXe.  Y.xXDXDXSXvXDXsX$ :X",
"b 8XtX}.7X}.yXu n.G.%XL.sX1.$ $XxXZXVXkXkX3XaX..e xXyXvX4XaXuX=X1X5 B.].uXY.tX<X$.2 j # 9X/.7X(.].F.|.P.#.= wX&X7X}.4XyX5XQ l   ",
"a 6X4XwX,X(.].8 l.1X-.r.,.u ] 1XaX,XU.U.Y.,XG.Q 6 G./.|.wX7X2XA.,Xd ..).D.U.t.z ..pXl.5 ).5X7X(.(.4Xy.g.o.6 rX3X_.J.4X_.H.k &.  ",
"p D.%XS.}.}._.0 k.'.T.d p.B.{ n.4X^.p.(.(.4Xp.*.3 rX^.1X^.7X).Q.x.: m.1X^.H.A.,X<XH.g $ E.^.tX'.wX<X9Xo.>.* <.1X^.,X1XH.{ ] A   ",
"a a.f.(.<X,.4Xw 1.G._.K.i W e e.^.r.0XG.'.c.g.Q a K.<X_.).f.,X).v.e J.P.$._.^.h.,XG.n.# u./.P.P./.(.r.+.] $ C f.(.,Xl.b.( D ` o ",
"5 { x.V.}.S i V r *.D.K.A.k # b e.(.s.D.| ! z F ; %Xb.i.F.b.,.l.E = B.y.^.4X&X<XH.p.A.- #.W j.f.,.:.b.f.5.$ R.b p.B.h.q.=.9 @Xy ",
"NX9 6.t ` o t + & 5 e.Q d # u . j g A 6.6.` r # . k 8 j 9 ) K Z B * # k u / =._ ` 4.j ; d E ) ) 4.) 3.V & - $ 8 3.G G r B P V :X",
"NX1.9.} } W ,.4 #XaXZXAXAXVXZXkXH.o C.lXN.CXxXvXT.cX>.3 b.uXdXcXfXcX3X| k @ m hXlXCXkXZXkXk # 4 $._.jXcXlXlXVXfXo b a.q.! + 9 :X",
"a jX3X).@.e.H.t v.<X<X,XeXwX1X=X`.2 1XVXhXaXrXdX1X=Xx.z =X,X,X4X4Xp.c.:.z d fXT.CX,XQ.T.v.O.e s.7X,X}.4X<Xq.0X:.5 |.7X7Xx.h [   ",
"l b.m.0XrX4Xp.t l.,XrX4XU.0XT.b.=.0 b.<X}.H.m.uX'.].i.f =XuX}.Q.X.3XrX0Xt.6 ~.rXaX} $.H.4Xx.5 #.4XR.^.e.s.7Xz.p.e t...6 T.l.g X ",
"#X@.H.'.G.W.f.j -.u.m.G.(.c.p.#.S w $.].4X4X).6Xb.'.X.! H._.i.i.7X).D.`.A.z 1X).-X,.|.b.b.-.k ! f.'.'.G.Q.).z.E.# ( 4XA.! &.)   ",
"8.p._.K.x.D.m.; k.!.E.n.i.#.e e.S ; b.6Xt.^.f.D.G.1./ X.f.(.b.^.H.G.U.v.1.k b.z X.6XK.'.(.^ S ! e.H.b.G.c.R.s.k.2 f.D.b.D.#.C @ ",
"e c.m.y.f.f.-.r *.e.$.y.h.H.! *.7.q ^.i  .u.t.i.1.M.C Q :.Y.U.P.K.f.f.l.( f x.s.K.! D.p.:.Z j ..p.| e.$.m.:.y.0 * e.@.-.e.C OX9 ",
"NX7 D G ) u A $ w R E Z ; i ( j ` = 3 g ) ] ] A =.w * u %.] ` R ( ( / ` D # R %.w S u E ) N u 2 h j D ~ R ) Z 7 ; t / R ) 2.J >X",
"*XG.hXlXlX0XbXxXxX~...; X.uXtXyX0XX.t b xXvXcX0XR.tXdXQ.b.!.3X$XvXVX!.0 f 3XkXxXxX`.H.3 - o.,.pX4 0XxXBX3Xk a T.bXbXyXfX6Xk.t 4.",
"2 sX6X^.U.d.uX,X'.d.d S.rX7X7X1X1XyXk.$.dXaXtXaX^.j.^...f.-X7X1XjX^.rX*.m.6X}.U.4X4Xf.H.*.jX2X! $X3X,X/.G...a hXrX4X6XV.V.1.%.  ",
"MXn.].Z.G.^.(.(.R.#.w S.6X(.D.R.'.D.H.4 ,X^.U.4XdXg.:.5 H.}.}.K.^.^.,X/ O.m.rXyXG.f.4X,XW s.z v X.&X7XK.b.Q a ^.^././.G.X.] 3.  ",
"GX<.k s./.K.K.G.G.y.-.p 0 ( W s.f.v.*.} R.).K.9X%XD.:.v p.b.(.H.4X<X,XA f G.'.=XrXD.D.s.S : H.uX;Xu.,Xe.Q ; #.hX<XK.G.b.f.E 7.X ",
"M.p.T.X.}.W.D.f.R.*.l.- ,X4XH.o.,.-.,.j.`.).).,XG.b.,.d v.A.f.h.G.R.l.E Q x.,X'.}.b.).1.k K.q.}.&Xc.Q m.i.j [ &X^.y.v.u.1.D M :X",
">X[ -.| $.K.1.n.l.-.,.5 J.G.m.1.,.e.[ 5 S.n.*.l.k.*.X.- g.,.D.b.A.>.! e l p.G.t.b.b.(.1.t ! J.(.G.f.&.&.u.] # ,. .y.s.b.i.N .X>X",
"NX@ C Z 6.u ^ / ) ; 4 3 &.| ^ D R ) 5 # ^ ! ~ ` 8.R j . Q k 4.) R ` ` % p F ~ =._ ~ =.XXB 3 ! %.%.| | ~ XXV @ $ 4.4.) t i OX% >X",
"k aXZXlX}.lXj fXfX1XyXp.. 2 fXxXVXfXCXCX5 R 1 q.3XxXgXxXfXfXO.@ k ! fXxXBXcX9X| #.. z.fXgXiXyXyXjX`.# 8.fXvXfXxX6Xl.2 ,./.y.( o ",
"f 7XtX7XR.lX{ (._./.v.e.l k ,X7XrX4X'.!.>.I.*.vXdXlXdXhXdX).A.2 @.9XyX=XhX|.rXrX6X: kXdXdXcXuX4X6X&Xu S.dX=XQ.xX9XyXr $.L.b.` X ",
"a ,XL.}.S.t.s.p.4XH.p.rX; D.G.^.b.G.4XA.A.w X.-XdXuX0X`.`.A.,.2 i.6X4XwXrXwX`.C m.g J.,Xf.D.4X7X<Xe.9 T.-X'.b.).!.A.7 p.W.k.8.# ",
"f ,XU.(.! Y.K.e.t.u.0X~ | f.R.`.rX].wXn.G.m.$ ..k @.1.-Xx.R.,.= 1.,X<X7X(.H.A.Q.W $ D.<X'.).y.D.Q %Xj y.R.D.`.^.R.<.u y.-.1.8.< ",
"f h.d.X.T.f.D.{ *.m.R.%.| @.Q.^.f.v.y.l.Z.t.b p.^.^.R...R.:.S : i.Q.(.(.G.p.x.1.T.7 l.&XR._.K.A.l.`.e 9.D.,X^.v.A.%.2 { ( o.3.H ",
"mXz ,.Q %.-...1.-.,.,.i.r t G.m.K.L.U.p.e.A X.w b.x.*.-.o. .;.$ -.k.^.P.p.l.-.:.%.9 g f.a.y.y.0.:.%.w & k.i.e.*.-.8.; z S %.@XK ",
"NX5 / ] e 3 =.j / %.X.z # l Q i D 4.` / @ C O n k A G ` / &.] * { 0 X.i S S S g E @ 4 g r ! | ~ 3.) . 0 ) D =.' <.t . z ! @ M >X",
"NXR.,X1X6XZXfX[ =.kXjXAX3X`.cXnXS ; Z.tX-XVXvX3XkXH.& A.G.cXxXn qXqXVX= O.c.).w z.BXm.o.e #.^.H.1X0XZX4X,X; p.rXrXlXrXD.W n 7.:X",
"p v.6X7XT.H.v.A.M.uXsX,XdXyX-XM.$.5 fX}.0XyXxXZX0XyXu %XvXvXxXvXiX0X=X2 wXR.).M.xXH.G.'.w 6XaXyXbXxXD.B.~.4 hX`.K.s.b.A.%XO.9 Z ",
"z 1XsX4Xx.R._.Q 8 u A.x.c t.!.G.e.e r.,XR.&X%X0X,Xi.4 ,.g.0X_.(._.=X1.: <X&X3XaX_.,XT.m.d 0XrXkX&X^.|.-.,.u 6X^.h.d.=X1.m.F ) X ",
"l H.f.R.yXB.b.k S.#.2 _.sX=XA.m.<.; i.Z.K.=Xc.G.f.k w i.4XT.H.D.).,.^.: ^.yX0Xx.c.G.z.z.i K.4XW.s.T.f._._ ~ b 3XK.A.`.b.v o.] X ",
"p 2Xc._...^.=Xj f d -Xe.R R.m.o.5.0 n.n.c.J.c.y.$.! 7 A 7Xm.G.G.p.p.&.2 b.,Xm.^.K.D.G.*.2 tX1XR.A.R.B.m.m.w >.c m.x._.p...C XXX ",
"p | -.| K.x.q 6.d ..H.$.u.k t.] 6.t Q J.d.o.{ D ,.*.# n.| [ } $.-.@.W 2 | | :.b.J.! { | = L.H.#.f.b.e.#.7.@ 3Xl.k j { e.g B @X$ ",
"FX; N i Z I I J * t ` E ) G B K 8 k w C r C j Z Z 2.o d 4 K & & K Z Z @ ; A D r C K H 7 u # w K S i 3.2.7 . q ; 2.C 7 ) Y J T >X",
"MX= W ..@.e.! e ).wXaXvXcX{ ; $XkXvXfX$XS.! + m dXcXxXiXqX-X2 O.qXCXAXBXCX;X= $ kXM.ZXVXfX!.z o.yX-XN.bXxX3X1Xh ^.wXaXsXy.u.7 #X",
"- f.h.(.b.y.t.f S.<XR.Z.1.x.! rX,X'.H.v.:.e.5 T.%Xc.yX9XO.1.w H.dXuX_.|.eXi.2 9XcXgXR.%Xn.A.<.Q =XG.4X^.K.(.=.@.Q.4X<X_.T.Z G X ",
"4 ^.|.(.O.#.G.e.1.'.b...Z.Z.! G.v.v.v.4XU.#.e p.Q.g.A.E.T.i.& O.x.G.c.&XG.i.( b.K.x.Q.R.A.T.u ,.v.Q.s.A.'.s.) a c.`.G.b.,.W r $ ",
"#X^.p.J.G.-.:.X.-.i.j ! }.x.d k.wXp.'.1XH.k u 0X,Xt.m.x.x.z.8 J.4XR.l.k.^.o.X.e.e.;.G.l.1.E.) b.Q.W O.o.).| ~ n m.R.x.:.l.r K 1 ",
"FX*.!.:.p.u.t k ! / z.A.~ S e 1.i.,XT.H.G.*.u g.n.k G.B.k.<.8 G.l.c.m./.%.D j X.p.p.:.,.o.M.C y.b k d.z.( z.*.k #.c G.x.A _ +X1 ",
"FXz  .p.p.&.b , @ &.*.*.i ~ # *.&.;.u.z.F S # g.F 3X .-.o.k.$ [ p.o...z / ` # ! | ! i.%.~ g 9 # h o.u.,.&.=.j C d ) %./ 5.7 OX' ",
"GX> v l n } a   = = - : u $ # # ; 0 d 3 : k 2 n # 8 r 9 8 $ # #.0 Q f $ $ ; n z 0 n 3 e V & d.$.3 t e 2 R = : + % 7 7 % % M & >X",
"5 VXZXZXDXsXcXO.-.1.fXkXk.VXc.'.u.= y.bXbXAX0XhXVXF , i.hX,XSXCXCXnX4X; C.2XAXfXlXvXdXaX5 G.fXA.4XlXjX$.g 8 7X8Xp.+.d D.G.Y.F 1 ",
"> e.6X7XQ.tX`./ i.3XK.l h.(.^.o._ & (.D._.'.G.<X`.=.w z.t.J./.|.{.l.-.Z 7XK.rX4XyXtX=Xz.8 G.G.R.p.f.G.$.! v ,Xc.W ,.-.!.R.$.D 1 ",
"3 ,.F.V.e.W.,.S O.p.R.^.O.<Xx.W / ( ).c.H.f.e.-.,.1.j ! 3XD.f.b.x.| 0 9 K.,X^.J.4Xb.A.k.9 F.D.i.K.).O.h 0 y.K.&.w } m._.(. .` 1 ",
"3 V.r.J.@.} b.i d ..:.&.R.b.| ( E 7 f.H.G.$.....S t 9 e.^.5Xe.:.| ! 1., ..y...q.:.F :.( +  .e.e.h. .W F ! [ @.! # b.a.:.f.A +X$ ",
"- h 0.F s x.r B ; r | | p.~ W S , ; 0.S #.{ ..! ^ | 7 {  .F ~ { | k.` 9 [ z 4.@.*.S.j j + h W S | z k Z @ e W S + h :.:.F t .X$ ",
"i h 0 C W 9 r I % & Z C C N 8 U U , u A A R r 9 B M L w 9 C D C K N P & @ g t r 5.0 H Y + V & C r N V U <   $ & % C i 9 7 B @X7 ",
"GXZ M I I I I K K V T I J U U U 4.4.9 J J I I U U T 7.7.I I J J J J T 7.oXI U 6.L N J U 7.& U K K J I XX7.3.I I U 7.J J J L +X>X"
};
